<mxfile host="app.diagrams.net" modified="2024-06-08T15:24:52.556Z" agent="Mozilla/5.0 (Windows NT 10.0; Win64; x64; rv:126.0) Gecko/20100101 Firefox/126.0" etag="0o8wkGMwc8kiQFq6y5ms" version="24.5.2" type="device">
  <diagram name="Pagina-1" id="dMMkqkrqtjuqXGtLNy9m">
    <mxGraphModel dx="1436" dy="895" grid="1" gridSize="10" guides="1" tooltips="1" connect="1" arrows="1" fold="1" page="1" pageScale="1" pageWidth="1169" pageHeight="827" math="0" shadow="0">
      <root>
        <mxCell id="0" />
        <mxCell id="1" parent="0" />
        <mxCell id="WvOtLcykDvuiAd4s5F0a-1" value="&lt;p style=&quot;margin: 4px 0px 0px; text-align: center; font-size: 13px;&quot;&gt;&lt;font style=&quot;font-size: 13px;&quot;&gt;&lt;i&gt;&amp;lt;&amp;lt;Interface&amp;gt;&amp;gt;&lt;/i&gt;&lt;br&gt;&lt;b&gt;AatMg&lt;/b&gt;&lt;br&gt;&lt;/font&gt;&lt;/p&gt;&lt;hr size=&quot;1&quot; style=&quot;border-style: solid; font-size: 13px;&quot;&gt;&lt;font style=&quot;font-size: 13px;&quot;&gt;&lt;br&gt;&lt;/font&gt;&lt;p style=&quot;margin: 0px 0px 0px 4px; font-size: 13px;&quot;&gt;&lt;font style=&quot;font-size: 13px;&quot;&gt;getAatById(Interger id): ResponseEntity&amp;lt;AatDTO&amp;gt;&lt;/font&gt;&lt;/p&gt;&lt;p style=&quot;margin: 0px 0px 0px 4px; font-size: 13px;&quot;&gt;&lt;font style=&quot;font-size: 13px;&quot;&gt;getAllAats(): ResponseEntity&amp;lt;List&amp;lt;AatDTO&amp;gt;&amp;gt;&lt;/font&gt;&lt;/p&gt;&lt;p style=&quot;margin: 0px 0px 0px 4px; font-size: 13px;&quot;&gt;&lt;font style=&quot;font-size: 13px;&quot;&gt;createAat(AatDTO aatDTO): ResponseEntity&amp;lt;AatDTO&amp;gt;&lt;/font&gt;&lt;/p&gt;&lt;p style=&quot;margin: 0px 0px 0px 4px; font-size: 13px;&quot;&gt;&lt;font style=&quot;font-size: 13px;&quot;&gt;updateAat(Integer id, AatDTO aatDTO): ResponseEntity&amp;lt;AatDTO&amp;gt;&lt;/font&gt;&lt;/p&gt;&lt;p style=&quot;margin: 0px 0px 0px 4px; font-size: 13px;&quot;&gt;&lt;font style=&quot;font-size: 13px;&quot;&gt;deleteAat(Integer id): ResponseEntity&amp;lt;Void&amp;gt;&lt;/font&gt;&lt;/p&gt;&lt;p style=&quot;margin: 0px 0px 0px 4px; font-size: 13px;&quot;&gt;&lt;font style=&quot;font-size: 13px;&quot;&gt;getNearestAat(double latitudine,double longitudine): ResponseEntity&amp;lt;AatDTO&amp;gt;&lt;br&gt;&lt;/font&gt;&lt;/p&gt;&lt;p style=&quot;margin:0px;margin-left:4px;&quot;&gt;&lt;/p&gt;" style="verticalAlign=top;align=left;overflow=fill;html=1;whiteSpace=wrap;" vertex="1" parent="1">
          <mxGeometry x="650" y="260" width="430" height="190" as="geometry" />
        </mxCell>
        <mxCell id="WvOtLcykDvuiAd4s5F0a-2" value="&lt;p style=&quot;margin: 4px 0px 0px; text-align: center; font-size: 13px;&quot;&gt;&lt;font style=&quot;font-size: 13px;&quot;&gt;&lt;i&gt;&amp;lt;&amp;lt;Interface&amp;gt;&amp;gt;&lt;/i&gt;&lt;br&gt;&lt;b&gt;Operatore118Mg&lt;/b&gt;&lt;br&gt;&lt;/font&gt;&lt;/p&gt;&lt;hr size=&quot;1&quot; style=&quot;border-style: solid; font-size: 13px;&quot;&gt;&lt;font style=&quot;font-size: 13px;&quot;&gt;&lt;br&gt;&lt;/font&gt;&lt;p style=&quot;margin: 0px 0px 0px 4px; font-size: 13px;&quot;&gt;&lt;font style=&quot;font-size: 13px;&quot;&gt;getOperatore118ByUser(String user): ResponseEntity&amp;lt;Operatore118DTO&amp;gt;&lt;/font&gt;&lt;/p&gt;&lt;p style=&quot;margin: 0px 0px 0px 4px; font-size: 13px;&quot;&gt;&lt;font style=&quot;font-size: 13px;&quot;&gt;getAllOperatori118(): ResponseEntity&amp;lt;List&amp;lt;Operatore118DTO&amp;gt;&amp;gt;&lt;/font&gt;&lt;/p&gt;&lt;p style=&quot;margin: 0px 0px 0px 4px; font-size: 13px;&quot;&gt;&lt;font style=&quot;font-size: 13px;&quot;&gt;createOperatore118(Operatore118DTO operatore118DTO): ResponseEntity&amp;lt;Operatore118DTO&amp;gt;&lt;/font&gt;&lt;/p&gt;&lt;p style=&quot;margin: 0px 0px 0px 4px; font-size: 13px;&quot;&gt;&lt;font style=&quot;font-size: 13px;&quot;&gt;updateOperatore118(String user, Operatore118DTO operatore118DTO): ResponseEntity&amp;lt;Operatore118DTO&amp;gt;&lt;/font&gt;&lt;/p&gt;&lt;p style=&quot;margin: 0px 0px 0px 4px; font-size: 13px;&quot;&gt;&lt;font style=&quot;font-size: 13px;&quot;&gt;deleteOperatore118(String user): ResponseEntity&amp;lt;Void&amp;gt;&lt;/font&gt;&lt;/p&gt;&lt;p style=&quot;margin: 0px 0px 0px 4px; font-size: 13px;&quot;&gt;&lt;font style=&quot;font-size: 13px;&quot;&gt;&lt;br&gt;&lt;br&gt;&lt;/font&gt;&lt;/p&gt;&lt;p style=&quot;margin:0px;margin-left:4px;&quot;&gt;&lt;/p&gt;" style="verticalAlign=top;align=left;overflow=fill;html=1;whiteSpace=wrap;" vertex="1" parent="1">
          <mxGeometry x="60" y="260" width="547" height="190" as="geometry" />
        </mxCell>
        <mxCell id="WvOtLcykDvuiAd4s5F0a-3" value="&lt;p style=&quot;margin: 4px 0px 0px; text-align: center; font-size: 13px;&quot;&gt;&lt;font style=&quot;font-size: 13px;&quot;&gt;&lt;i&gt;&amp;lt;&amp;lt;Interface&amp;gt;&amp;gt;&lt;/i&gt;&lt;br&gt;&lt;b&gt;EmergenzaMg&lt;/b&gt;&lt;br&gt;&lt;/font&gt;&lt;/p&gt;&lt;hr size=&quot;1&quot; style=&quot;border-style: solid; font-size: 13px;&quot;&gt;&lt;font style=&quot;font-size: 13px;&quot;&gt;&lt;br&gt;&lt;/font&gt;&lt;p style=&quot;margin: 0px 0px 0px 4px; font-size: 13px;&quot;&gt;&lt;font style=&quot;font-size: 13px;&quot;&gt;getEmergenzaById(Interger id): ResponseEntity&amp;lt;EmergenzaDTO&amp;gt;&lt;/font&gt;&lt;/p&gt;&lt;p style=&quot;margin: 0px 0px 0px 4px; font-size: 13px;&quot;&gt;&lt;font style=&quot;font-size: 13px;&quot;&gt;getAllEmergenze(): ResponseEntity&amp;lt;List&amp;lt;EmergenzaDTO&amp;gt;&amp;gt;&lt;/font&gt;&lt;/p&gt;&lt;p style=&quot;margin: 0px 0px 0px 4px; font-size: 13px;&quot;&gt;&lt;font style=&quot;font-size: 13px;&quot;&gt;createEmergenza(EmergenzaDTO emergenzaDTO): ResponseEntity&amp;lt;EmergenzaDTO&amp;gt;&lt;/font&gt;&lt;/p&gt;&lt;p style=&quot;margin: 0px 0px 0px 4px; font-size: 13px;&quot;&gt;&lt;font style=&quot;font-size: 13px;&quot;&gt;updateEmergenza(Integer id, EmergenzaDTO emergenzaDTO): ResponseEntity&amp;lt;EmergenzaDTO&amp;gt;&lt;/font&gt;&lt;/p&gt;&lt;p style=&quot;margin: 0px 0px 0px 4px; font-size: 13px;&quot;&gt;&lt;font style=&quot;font-size: 13px;&quot;&gt;deleteEmergenza(Integer id): ResponseEntity&amp;lt;Void&amp;gt;&lt;/font&gt;&lt;/p&gt;&lt;p style=&quot;margin: 0px 0px 0px 4px; font-size: 13px;&quot;&gt;&lt;font style=&quot;font-size: 13px;&quot;&gt;&lt;br&gt;&lt;br&gt;&lt;/font&gt;&lt;/p&gt;&lt;p style=&quot;margin:0px;margin-left:4px;&quot;&gt;&lt;/p&gt;" style="verticalAlign=top;align=left;overflow=fill;html=1;whiteSpace=wrap;" vertex="1" parent="1">
          <mxGeometry x="520" y="30" width="497" height="190" as="geometry" />
        </mxCell>
        <mxCell id="WvOtLcykDvuiAd4s5F0a-4" value="&lt;p style=&quot;margin: 4px 0px 0px; text-align: center; font-size: 13px;&quot;&gt;&lt;font style=&quot;font-size: 13px;&quot;&gt;&lt;i&gt;&amp;lt;&amp;lt;Interface&amp;gt;&amp;gt;&lt;/i&gt;&lt;br&gt;&lt;b&gt;MezzoMg&lt;/b&gt;&lt;br&gt;&lt;/font&gt;&lt;/p&gt;&lt;hr size=&quot;1&quot; style=&quot;border-style: solid; font-size: 13px;&quot;&gt;&lt;font style=&quot;font-size: 13px;&quot;&gt;&lt;br&gt;&lt;/font&gt;&lt;p style=&quot;margin: 0px 0px 0px 4px; font-size: 13px;&quot;&gt;&lt;font style=&quot;font-size: 13px;&quot;&gt;getMezzoById(Interger id): ResponseEntity&amp;lt;MezzoDTO&amp;gt;&lt;/font&gt;&lt;/p&gt;&lt;p style=&quot;margin: 0px 0px 0px 4px; font-size: 13px;&quot;&gt;&lt;font style=&quot;font-size: 13px;&quot;&gt;getAllMezzi(): ResponseEntity&amp;lt;List&amp;lt;MezzoDTO&amp;gt;&amp;gt;&lt;/font&gt;&lt;/p&gt;&lt;p style=&quot;margin: 0px 0px 0px 4px; font-size: 13px;&quot;&gt;&lt;font style=&quot;font-size: 13px;&quot;&gt;createMezzo(MezzoDTO mezzoDTO): ResponseEntity&amp;lt;MezzoDTO&amp;gt;&lt;/font&gt;&lt;/p&gt;&lt;p style=&quot;margin: 0px 0px 0px 4px; font-size: 13px;&quot;&gt;&lt;font style=&quot;font-size: 13px;&quot;&gt;updateMezzo(Integer id, MezzoDTO mezzoDTO): ResponseEntity&amp;lt;MezzoDTO&amp;gt;&lt;/font&gt;&lt;/p&gt;&lt;p style=&quot;margin: 0px 0px 0px 4px; font-size: 13px;&quot;&gt;&lt;font style=&quot;font-size: 13px;&quot;&gt;deleteMezzo(Integer id): ResponseEntity&amp;lt;Void&amp;gt;&lt;/font&gt;&lt;/p&gt;&lt;p style=&quot;margin: 0px 0px 0px 4px; font-size: 13px;&quot;&gt;&lt;font style=&quot;font-size: 13px;&quot;&gt;&lt;br&gt;&lt;br&gt;&lt;/font&gt;&lt;/p&gt;&lt;p style=&quot;margin:0px;margin-left:4px;&quot;&gt;&lt;/p&gt;" style="verticalAlign=top;align=left;overflow=fill;html=1;whiteSpace=wrap;" vertex="1" parent="1">
          <mxGeometry x="60" y="30" width="420" height="170" as="geometry" />
        </mxCell>
        <mxCell id="WvOtLcykDvuiAd4s5F0a-5" value="&lt;p style=&quot;margin: 4px 0px 0px; text-align: center; font-size: 13px;&quot;&gt;&lt;font style=&quot;font-size: 13px;&quot;&gt;&lt;i&gt;&amp;lt;&amp;lt;Interface&amp;gt;&amp;gt;&lt;/i&gt;&lt;br&gt;&lt;b&gt;PazienteMg&lt;/b&gt;&lt;br&gt;&lt;/font&gt;&lt;/p&gt;&lt;hr size=&quot;1&quot; style=&quot;border-style: solid; font-size: 13px;&quot;&gt;&lt;font style=&quot;font-size: 13px;&quot;&gt;&lt;br&gt;&lt;/font&gt;&lt;p style=&quot;margin: 0px 0px 0px 4px; font-size: 13px;&quot;&gt;&lt;font style=&quot;font-size: 13px;&quot;&gt;getPazienteById(Interger id): ResponseEntity&amp;lt;PazienteDTO&amp;gt;&lt;/font&gt;&lt;/p&gt;&lt;p style=&quot;margin: 0px 0px 0px 4px; font-size: 13px;&quot;&gt;&lt;font style=&quot;font-size: 13px;&quot;&gt;getAllPazienti(): ResponseEntity&amp;lt;List&amp;lt;pazienteDTO&amp;gt;&amp;gt;&lt;/font&gt;&lt;/p&gt;&lt;p style=&quot;margin: 0px 0px 0px 4px; font-size: 13px;&quot;&gt;&lt;font style=&quot;font-size: 13px;&quot;&gt;createPaziente(PazienteDTO pazienteDTO): ResponseEntity&amp;lt;PazienteDTO&amp;gt;&lt;/font&gt;&lt;/p&gt;&lt;p style=&quot;margin: 0px 0px 0px 4px; font-size: 13px;&quot;&gt;&lt;font style=&quot;font-size: 13px;&quot;&gt;updatePaziente(Integer id, PazienteDTO pazienteDTO): ResponseEntity&amp;lt;PazienteDTO&amp;gt;&lt;/font&gt;&lt;/p&gt;&lt;p style=&quot;margin: 0px 0px 0px 4px; font-size: 13px;&quot;&gt;&lt;font style=&quot;font-size: 13px;&quot;&gt;deletepPaziente(Integer id): ResponseEntity&amp;lt;Void&amp;gt;&lt;/font&gt;&lt;/p&gt;&lt;p style=&quot;margin: 0px 0px 0px 4px; font-size: 13px;&quot;&gt;&lt;font style=&quot;font-size: 13px;&quot;&gt;&lt;br&gt;&lt;br&gt;&lt;/font&gt;&lt;/p&gt;&lt;p style=&quot;margin:0px;margin-left:4px;&quot;&gt;&lt;/p&gt;" style="verticalAlign=top;align=left;overflow=fill;html=1;whiteSpace=wrap;" vertex="1" parent="1">
          <mxGeometry x="60" y="500" width="437" height="195" as="geometry" />
        </mxCell>
      </root>
    </mxGraphModel>
  </diagram>
</mxfile>
